# xmcd
#
# Track frame offsets: 
#        150
#        33550
#        68684
#        90027
#        146765
#        171485
#        234740
#        296996
#
# Disc length: 4621 seconds
#
# Revision: 1
# Processed by: cddbd v1.5.2PL0 Copyright (c) Steve Scherf et al.
# Submitted via: ExactAudioCopy v1.1
#
DISCID=73120b08
DTITLE=John Coltrane - Fealess Leader - Disc 2
DYEAR=2006
DGENRE=Jazz
TTITLE0=You Leave Me Breathless (mono)
TTITLE1=Bass Blues (mono)
TTITLE2=Soft Lights (mono)
TTITLE3=Traneing In (mono)
TTITLE4=Slow Dance (mono)
TTITLE5=Lush Life (mono)
TTITLE6=The Believer (mono)
TTITLE7=Nakatini Serenade (mono)
EXTD=
EXTT0=
EXTT1=
EXTT2=
EXTT3=
EXTT4=
EXTT5=
EXTT6=
EXTT7=
PLAYORDER=
